name ./resultDataOpenSim/trcMotMarkerGrf/sub10/grf-04-05.mot
datacolumns 19
datarows 27
range 0.49200000 0.59600000
endheader

                time	     ground_force_vx	     ground_force_vy	     ground_force_vz	     ground_force_px	     ground_force_py	     ground_force_pz	   l_ground_force_vx	   l_ground_force_vy	   l_ground_force_vz	   l_ground_force_px	   l_ground_force_py	   l_ground_force_pz	     ground_torque_x	     ground_torque_y	     ground_torque_z	   l_ground_torque_x	   l_ground_torque_y	   l_ground_torque_z	
          0.49200000	         44.95523866	        432.87258566	        -16.36163279	         -0.70576690	          0.00000000	         -0.03906514	          0.00000000	          0.00000000	          0.00000000	          0.00000000	          0.00000000	          0.00000000	          0.00000000	          4.44134981	          0.00000000	          0.00000000	          0.00000000	          0.00000000	
          0.49600000	         48.41838106	        438.09728971	        -16.46451611	         -0.70652242	          0.00000000	         -0.03898941	          0.00000000	          0.00000000	          0.00000000	          0.00000000	          0.00000000	          0.00000000	          0.00000000	          4.76001411	          0.00000000	          0.00000000	          0.00000000	          0.00000000	
          0.50000000	         51.62096710	        444.15640931	        -15.79735410	         -0.70718299	          0.00000000	         -0.03895679	          0.00000000	          0.00000000	          0.00000000	          0.00000000	          0.00000000	          0.00000000	          0.00000000	          5.17966083	          0.00000000	          0.00000000	          0.00000000	          0.00000000	
          0.50400000	         54.42908783	        451.01370000	        -14.58439898	         -0.70765033	          0.00000000	         -0.03895962	          0.00000000	          0.00000000	          0.00000000	          0.00000000	          0.00000000	          0.00000000	          0.00000000	          5.66806708	          0.00000000	          0.00000000	          0.00000000	          0.00000000	
          0.50800000	         56.75695064	        458.59535133	        -13.18447300	         -0.70786228	          0.00000000	         -0.03897403	          0.00000000	          0.00000000	          0.00000000	          0.00000000	          0.00000000	          0.00000000	          0.00000000	          6.17657934	          0.00000000	          0.00000000	          0.00000000	          0.00000000	
          0.51200000	         58.59037739	        466.80911157	        -12.01207297	         -0.70780938	          0.00000000	         -0.03896593	          0.00000000	          0.00000000	          0.00000000	          0.00000000	          0.00000000	          0.00000000	          0.00000000	          6.65030377	          0.00000000	          0.00000000	          0.00000000	          0.00000000	
          0.51600000	         59.98800647	        475.54809692	        -11.44753373	         -0.70748867	          0.00000000	         -0.03890383	          0.00000000	          0.00000000	          0.00000000	          0.00000000	          0.00000000	          0.00000000	          0.00000000	          7.03911181	          0.00000000	          0.00000000	          0.00000000	          0.00000000	
          0.52000000	         61.06047561	        484.69135181	        -11.75718483	         -0.70691022	          0.00000000	         -0.03877421	          0.00000000	          0.00000000	          0.00000000	          0.00000000	          0.00000000	          0.00000000	          0.00000000	          7.30694671	          0.00000000	          0.00000000	          0.00000000	          0.00000000	
          0.52400000	         61.94576264	        494.11295509	        -13.04326105	         -0.70609774	          0.00000000	         -0.03857998	          0.00000000	          0.00000000	          0.00000000	          0.00000000	          0.00000000	          0.00000000	          0.00000000	          7.43753784	          0.00000000	          0.00000000	          0.00000000	          0.00000000	
          0.52800000	         62.78953572	        503.70271091	        -15.23554417	         -0.70508008	          0.00000000	         -0.03833593	          0.00000000	          0.00000000	          0.00000000	          0.00000000	          0.00000000	          0.00000000	          0.00000000	          7.43559705	          0.00000000	          0.00000000	          0.00000000	          0.00000000	
          0.53200000	         63.72189257	        513.38879397	        -18.11915304	         -0.70391203	          0.00000000	         -0.03806321	          0.00000000	          0.00000000	          0.00000000	          0.00000000	          0.00000000	          0.00000000	          0.00000000	          7.32363266	          0.00000000	          0.00000000	          0.00000000	          0.00000000	
          0.53600000	         64.83478179	        523.15228322	        -21.38612600	         -0.70266091	          0.00000000	         -0.03778427	          0.00000000	          0.00000000	          0.00000000	          0.00000000	          0.00000000	          0.00000000	          0.00000000	          7.13543953	          0.00000000	          0.00000000	          0.00000000	          0.00000000	
          0.54000000	         66.17132559	        533.02862475	        -24.70317993	         -0.70137820	          0.00000000	         -0.03751932	          0.00000000	          0.00000000	          0.00000000	          0.00000000	          0.00000000	          0.00000000	          0.00000000	          6.90799275	          0.00000000	          0.00000000	          0.00000000	          0.00000000	
          0.54400000	         67.73166629	        543.08869390	        -27.77975192	         -0.70010136	          0.00000000	         -0.03729029	          0.00000000	          0.00000000	          0.00000000	          0.00000000	          0.00000000	          0.00000000	          0.00000000	          6.67377794	          0.00000000	          0.00000000	          0.00000000	          0.00000000	
          0.54800000	         69.49745557	        553.40240802	        -30.41372715	         -0.69886494	          0.00000000	         -0.03712267	          0.00000000	          0.00000000	          0.00000000	          0.00000000	          0.00000000	          0.00000000	          0.00000000	          6.45537411	          0.00000000	          0.00000000	          0.00000000	          0.00000000	
          0.55200000	         71.46544626	        564.00186692	        -32.50489459	         -0.69769278	          0.00000000	         -0.03703848	          0.00000000	          0.00000000	          0.00000000	          0.00000000	          0.00000000	          0.00000000	          0.00000000	          6.26339432	          0.00000000	          0.00000000	          0.00000000	          0.00000000	
          0.55600000	         73.67030167	        574.86320382	        -34.03549118	         -0.69658477	          0.00000000	         -0.03705468	          0.00000000	          0.00000000	          0.00000000	          0.00000000	          0.00000000	          0.00000000	          0.00000000	          6.09793166	          0.00000000	          0.00000000	          0.00000000	          0.00000000	
          0.56000000	         76.18839282	        585.92218739	        -35.02578374	         -0.69552312	          0.00000000	         -0.03718762	          0.00000000	          0.00000000	          0.00000000	          0.00000000	          0.00000000	          0.00000000	          0.00000000	          5.95273471	          0.00000000	          0.00000000	          0.00000000	          0.00000000	
          0.56400000	         79.12859099	        597.11895584	        -35.49263707	         -0.69449521	          0.00000000	         -0.03745147	          0.00000000	          0.00000000	          0.00000000	          0.00000000	          0.00000000	          0.00000000	          0.00000000	          5.82069671	          0.00000000	          0.00000000	          0.00000000	          0.00000000	
          0.56800000	         82.61461326	        608.43706629	        -35.43764599	         -0.69351427	          0.00000000	         -0.03785359	          0.00000000	          0.00000000	          0.00000000	          0.00000000	          0.00000000	          0.00000000	          0.00000000	          5.69904550	          0.00000000	          0.00000000	          0.00000000	          0.00000000	
          0.57200000	         86.76413314	        619.89750052	        -34.85736866	         -0.69262325	          0.00000000	         -0.03839181	          0.00000000	          0.00000000	          0.00000000	          0.00000000	          0.00000000	          0.00000000	          0.00000000	          5.59284948	          0.00000000	          0.00000000	          0.00000000	          0.00000000	
          0.57600000	         91.67123816	        631.50750753	        -33.74513977	         -0.69187288	          0.00000000	         -0.03905050	          0.00000000	          0.00000000	          0.00000000	          0.00000000	          0.00000000	          0.00000000	          0.00000000	          5.51594309	          0.00000000	          0.00000000	          0.00000000	          0.00000000	
          0.58000000	         97.38618387	        643.21053706	        -32.07409909	         -0.69129128	          0.00000000	         -0.03980299	          0.00000000	          0.00000000	          0.00000000	          0.00000000	          0.00000000	          0.00000000	          0.00000000	          5.48895355	          0.00000000	          0.00000000	          0.00000000	          0.00000000	
          0.58400000	        103.88928422	        654.88293813	        -29.78900520	         -0.69087758	          0.00000000	         -0.04062130	          0.00000000	          0.00000000	          0.00000000	          0.00000000	          0.00000000	          0.00000000	          0.00000000	          5.53471640	          0.00000000	          0.00000000	          0.00000000	          0.00000000	
          0.58800000	        111.07930407	        666.37214800	        -26.83432961	         -0.69060484	          0.00000000	         -0.04148344	          0.00000000	          0.00000000	          0.00000000	          0.00000000	          0.00000000	          0.00000000	          0.00000000	          5.67204122	          0.00000000	          0.00000000	          0.00000000	          0.00000000	
          0.59200000	        118.79353853	        677.52489780	        -23.20436939	         -0.69044206	          0.00000000	         -0.04236682	          0.00000000	          0.00000000	          0.00000000	          0.00000000	          0.00000000	          0.00000000	          0.00000000	          5.90940214	          0.00000000	          0.00000000	          0.00000000	          0.00000000	
          0.59600000	        126.84365893	        688.17714312	        -18.98359047	         -0.69035748	          0.00000000	         -0.04324467	          0.00000000	          0.00000000	          0.00000000	          0.00000000	          0.00000000	          0.00000000	          0.00000000	          6.24030847	          0.00000000	          0.00000000	          0.00000000	          0.00000000	
